<svg width="25" height="25" viewBox="0 0 25 25" fill="none" xmlns="http://www.w3.org/2000/svg">
<rect x="0.80957" y="0.595703" width="23.8095" height="23.8095" rx="4.7619" fill="#175C4C"/>
<path d="M8.37331 12.6745C8.14086 12.442 7.76397 12.442 7.53152 12.6745C7.29906 12.9069 7.29906 13.2838 7.53152 13.5163L10.5077 16.4925C10.7402 16.7249 11.117 16.7249 11.3495 16.4925L17.8971 9.94485C18.1296 9.71239 18.1296 9.33551 17.8971 9.10305C17.6647 8.8706 17.2878 8.8706 17.0553 9.10305L10.9286 15.2298L8.37331 12.6745Z" fill="white"/>
<mask id="mask0_1074_13181" style="mask-type:luminance" maskUnits="userSpaceOnUse" x="7" y="8" width="12" height="9">
<path d="M8.37331 12.6745C8.14086 12.442 7.76397 12.442 7.53152 12.6745C7.29906 12.9069 7.29906 13.2838 7.53152 13.5163L10.5077 16.4925C10.7402 16.7249 11.117 16.7249 11.3495 16.4925L17.8971 9.94485C18.1296 9.71239 18.1296 9.33551 17.8971 9.10305C17.6647 8.8706 17.2878 8.8706 17.0553 9.10305L10.9286 15.2298L8.37331 12.6745Z" fill="white"/>
</mask>
<g mask="url(#mask0_1074_13181)">
</g>
</svg>
